<?xml version="1.0" encoding="utf-8"?>
<!-- Generator: Adobe Illustrator 16.0.0, SVG Export Plug-In . SVG Version: 6.00 Build 0)  -->
<!DOCTYPE svg PUBLIC "-//W3C//DTD SVG 1.1//EN" "http://www.w3.org/Graphics/SVG/1.1/DTD/svg11.dtd">
<svg version="1.1" id="Layer_1" xmlns="http://www.w3.org/2000/svg" xmlns:xlink="http://www.w3.org/1999/xlink" x="0px" y="0px"
	 width="841.889px" height="595.281px" viewBox="0 0 841.889 595.281" enable-background="new 0 0 841.889 595.281"
	 xml:space="preserve">
<g>
	<path fill="#FAAB18" d="M660.363,281.312C667.009,355.221,654.782,219.255,660.363,281.312"/>
	<path fill="#FAAB18" d="M614.746,131.151l-1.006-2.103c-2.133-4.763-4.125-9.202-5.77-13.029l-6.756-15.653l16.858-0.917
		c11.102-0.653,19.292-5.784,22.89-14.428c0.518-1.195,0.906-2.432,1.216-3.707c-1.614-7.937-6.567-15.23-13.972-19.211
		c-2.529-1.315-5.63-2.033-8.887-2.033c-6.787,0-14.01,3.024-19.262,8.032c-4.385,4.215-9.805,11.877-10.701,24.517
		c0.876,7.269,3.049,15.749,7.135,25.573c1.295,3.204,2.919,6.816,4.703,10.787c0.996,2.222,2.032,4.559,3.168,7.06
		c15.693,34.446,39.358,86.534,44.84,145.358c6.604,70.566-15.476,132.076-65.615,182.834
		c-44.68,45.277-100.071,69.173-160.146,69.173c-3.407,0-6.88-0.04-10.318-0.221c-57.324-2.66-113.407-27.71-153.928-68.732
		c-39.672-40.196-64.169-96.753-67.208-155.224c-3.299-64.279,19.978-125.131,65.554-171.281
		c35.682-36.14,83.222-56.009,134.025-56.009c18.04,0,36.268,2.551,54.125,7.503c64.089,17.802,111.171,63.717,126.007,122.869
		c10.244,40.719,0.399,83.665-24.97,109.393c-19.361,19.649-42.488,30.431-65.066,30.431c-3.179,0-6.378-0.22-9.507-0.657
		c-20.485-2.84-37.564-14.717-49.722-34.496h-0.04l-4.729-9.248c-1.911-3.706-3.824-7.611-6.017-12.35
		c-0.698-1.445-1.375-2.884-2.112-4.365c-0.24-0.498-0.499-0.98-0.728-1.479c-5.391-9.686-14.692-17.049-24.98-18.499
		c-17.128-2.411-28.343,16.152-21.294,31.183c7.937,16.81,24.348,14.498,39.793,12.426l5.037-0.678l2.71,4.763
		c13.596,24.672,35.637,40.813,60.398,44.281c3.657,0.527,7.384,0.798,11.091,0.798c25.668,0,51.674-12.058,73.207-33.829
		c11.897-12.146,21.055-28.119,26.515-46.129c8.729-30.571,5.819-60.055-2.112-87.088c-7.961-27.003-22.938-48.301-41.65-67.259
		c-23.605-23.914-54.325-41.59-88.841-51.201c-18.952-5.286-38.228-7.957-57.33-7.957c-53.732,0-104.166,21.109-142,59.457
		c-104.047,105.357-80.203,260.052,1.639,342.935c41.815,42.368,100.34,68.515,160.559,71.644c4.025,0.219,8.108,0.358,12.112,0.358
		c62.365,0,121.972-25.729,167.977-72.241c52.263-52.939,75.379-117.199,68.684-191.095
		C654.782,219.255,629.713,164.117,614.746,131.151"/>
	<path fill="#FAAB18" d="M467.335,343.664c2.811,0.438,5.709,0.637,8.599,0.637c20.428,0,41.342-9.903,58.959-27.84
		c23.057-23.556,31.767-62.81,22.16-100.052c-2.909-11.378-7.213-22.354-12.734-32.692c-20.726-38.791-57.723-67.14-104.165-79.75
		c-16.163-4.399-32.668-6.641-48.975-6.641c-29.255,0-58.066,7.303-83.282,21.188c-0.592,0.329-1.195,0.668-1.783,0.982
		l-0.643,0.369c-14.378,8.14-27.327,18.2-38.477,29.917c-42.264,43.863-63.507,101.376-59.74,161.905
		c3.352,55.132,26.963,108.391,64.708,146.065c6.661,6.656,13.886,12.993,21.458,18.753c35.866,27.44,80.157,43.623,124.646,45.576
		c3.016,0.139,6.095,0.219,9.104,0.219c57.145,0,109.835-22.728,152.463-65.664c30.969-31.228,50.938-66.939,59.366-106.14
		c4.493-20.895,5.76-43.344,3.806-66.54c-4.812-55.71-26.764-105.413-41.281-138.3l-0.538-1.175
		c-2.641-5.979-4.893-11.09-6.755-15.569c-0.01-0.139-0.091-0.244-0.15-0.384c-4.783-11.768-6.855-21.632-7.135-29.867
		c-0.099-1.121-0.139-2.228-0.158-3.284c0-0.259-0.021-0.513-0.021-0.767c0-0.234,0-0.499-0.02-0.748c0-0.284,0-0.588,0-0.856
		c-0.021-0.334-0.021-0.663-0.021-1.026c0-0.125,0-0.26,0-0.399c-0.02-0.298-0.02-0.562-0.039-0.847c0-0.249-0.03-0.543-0.03-0.767
		c0-0.274-0.01-0.583-0.01-0.837c0-0.225-0.021-0.489-0.021-0.722c-0.02-0.319-0.02-0.594-0.02-0.868
		c-0.02-0.244-0.02-0.473-0.02-0.777c-0.021-0.672-0.021-1.355-0.021-2.008c-3.339,10.801-3.128,22.938,0.408,38.507
		c0.409,1.908,1.106,4.763,2.023,8.345c1.405,5.609,3.268,12.939,5.201,21.633c11.897,45.68,28.757,121.509,2.81,192.553
		c-7.633,23.098-19.042,42.409-34.246,57.854c-38.493,38.99-86.56,60.482-135.266,60.482c-46.164,0-89.399-19.041-125.016-55.092
		c-66.038-66.949-55.875-167.196-4.923-218.82c22.53-22.828,51.91-35.388,82.723-35.388c28.279,0,54.898,10.542,73.063,28.917
		c19.111,19.346,28.249,51.894,22.29,79.106c-5.271,24.163-21.732,42.458-46.335,51.535l-4.204,1.545
		C435.769,331.716,450.257,341.291,467.335,343.664"/>
</g>
</svg>
