<?xml version="1.0" encoding="utf-8"?>
<!-- Generator: Adobe Illustrator 16.0.0, SVG Export Plug-In . SVG Version: 6.00 Build 0)  -->
<!DOCTYPE svg PUBLIC "-//W3C//DTD SVG 1.1//EN" "http://www.w3.org/Graphics/SVG/1.1/DTD/svg11.dtd">
<svg version="1.1" id="Layer_2" xmlns="http://www.w3.org/2000/svg" xmlns:xlink="http://www.w3.org/1999/xlink" x="0px" y="0px"
	 width="364px" height="52px" viewBox="0 0 364 52" enable-background="new 0 0 364 52" xml:space="preserve">
<g>
	<path fill="#FFFFFF" d="M322.572,11.495c0,1.25-0.451,2.231-1.354,2.942c-0.904,0.711-2.15,1.067-3.74,1.067
		c-1.588,0-2.889-0.247-3.901-0.74v-2.173c0.642,0.302,1.321,0.539,2.042,0.712c0.723,0.173,1.393,0.26,2.016,0.26
		c0.908,0,1.582-0.173,2.016-0.519c0.434-0.346,0.646-0.811,0.646-1.395c0-0.525-0.199-0.97-0.597-1.335
		c-0.397-0.366-1.218-0.798-2.462-1.298c-1.279-0.519-2.184-1.112-2.71-1.778c-0.524-0.667-0.788-1.468-0.788-2.403
		c0-1.173,0.416-2.096,1.25-2.77c0.833-0.672,1.951-1.009,3.354-1.009c1.35,0,2.688,0.294,4.021,0.884l-0.729,1.875
		c-1.25-0.525-2.363-0.788-3.348-0.788c-0.742,0-1.309,0.162-1.689,0.485c-0.385,0.323-0.576,0.751-0.576,1.283
		c0,0.366,0.076,0.678,0.229,0.938c0.154,0.259,0.406,0.505,0.762,0.735c0.353,0.23,0.984,0.535,1.9,0.913
		c1.033,0.43,1.789,0.83,2.271,1.202c0.479,0.371,0.832,0.791,1.058,1.259C322.461,10.31,322.572,10.861,322.572,11.495z"/>
	<path fill="#FFFFFF" d="M335.646,15.312h-2.644l-3.521-5.75l-3.548,5.75h-2.461l4.662-7.287l-4.364-6.769h2.558l3.25,5.316
		l3.249-5.316h2.479l-4.395,6.806L335.646,15.312z"/>
	<path fill="#FFFFFF" d="M346.078,15.312h-9.525V13.6l3.623-3.644c1.07-1.096,1.779-1.873,2.129-2.331
		c0.353-0.458,0.604-0.889,0.767-1.293c0.16-0.403,0.239-0.836,0.239-1.298c0-0.634-0.19-1.134-0.57-1.5
		c-0.382-0.365-0.908-0.548-1.582-0.548c-0.538,0-1.061,0.101-1.562,0.298c-0.502,0.199-1.084,0.557-1.744,1.077l-1.223-1.49
		c0.782-0.661,1.543-1.128,2.277-1.403c0.734-0.276,1.521-0.414,2.354-0.414c1.311,0,2.354,0.341,3.146,1.023
		c0.789,0.683,1.186,1.601,1.186,2.755c0,0.634-0.113,1.236-0.344,1.807c-0.229,0.57-0.574,1.158-1.048,1.764
		s-1.255,1.424-2.353,2.457l-2.44,2.364v0.096h6.673L346.078,15.312L346.078,15.312z"/>
</g>
<g>
	<path fill="#FAAB18" d="M62.543,21.683C63.195,28.925,61.996,15.601,62.543,21.683"/>
	<path fill="#FAAB18" d="M58.072,6.966L57.974,6.76c-0.209-0.467-0.404-0.902-0.566-1.277l-0.662-1.534l1.653-0.09
		c1.088-0.064,1.89-0.567,2.243-1.414c0.051-0.117,0.089-0.238,0.119-0.363c-0.158-0.778-0.643-1.493-1.369-1.883
		C59.144,0.07,58.841,0,58.521,0c-0.665,0-1.373,0.296-1.888,0.787c-0.43,0.413-0.96,1.164-1.049,2.403
		c0.086,0.712,0.299,1.543,0.699,2.506c0.128,0.314,0.287,0.668,0.462,1.057c0.097,0.218,0.199,0.447,0.31,0.692
		c1.538,3.376,3.857,8.481,4.394,14.246c0.648,6.915-1.516,12.943-6.43,17.918c-4.379,4.438-9.808,6.779-15.696,6.779
		c-0.334,0-0.674-0.004-1.011-0.021c-5.618-0.261-11.115-2.716-15.086-6.737c-3.888-3.939-6.289-9.482-6.587-15.211
		c-0.323-6.3,1.958-12.264,6.425-16.787c3.497-3.542,8.156-5.489,13.135-5.489c1.768,0,3.556,0.25,5.306,0.735
		C47.786,4.624,52.4,9.124,53.854,14.921c1.004,3.991,0.039,8.2-2.448,10.721c-1.897,1.924-4.163,2.982-6.376,2.982
		c-0.312,0-0.626-0.022-0.932-0.065c-2.007-0.278-3.682-1.442-4.873-3.379h-0.004l-0.464-0.906
		c-0.187-0.364-0.375-0.747-0.589-1.211c-0.069-0.142-0.135-0.283-0.208-0.428c-0.023-0.049-0.049-0.096-0.071-0.145
		c-0.528-0.949-1.44-1.671-2.448-1.813c-1.679-0.236-2.778,1.583-2.087,3.056c0.778,1.648,2.386,1.421,3.9,1.218l0.493-0.067
		l0.266,0.468c1.333,2.417,3.493,3.999,5.92,4.338c0.359,0.052,0.724,0.078,1.087,0.078c2.516,0,5.065-1.182,7.175-3.315
		c1.166-1.189,2.063-2.755,2.599-4.52c0.855-2.996,0.57-5.886-0.208-8.535c-0.78-2.647-2.247-4.734-4.081-6.592
		c-2.314-2.344-5.325-4.076-8.707-5.018c-1.858-0.518-3.748-0.78-5.62-0.78c-5.266,0-10.209,2.069-13.917,5.827
		c-10.197,10.326-7.86,25.486,0.161,33.609c4.098,4.152,9.834,6.715,15.735,7.021c0.395,0.022,0.796,0.035,1.188,0.035
		c6.112,0,11.954-2.521,16.463-7.08c5.122-5.188,7.388-11.485,6.731-18.727C61.996,15.601,59.54,10.197,58.072,6.966"/>
	<path fill="#FAAB18" d="M43.625,27.793c0.276,0.042,0.56,0.062,0.843,0.062c2.002,0,4.052-0.97,5.778-2.727
		c2.261-2.309,3.114-6.156,2.173-9.806c-0.286-1.115-0.707-2.191-1.249-3.204c-2.031-3.802-5.657-6.58-10.209-7.816
		c-1.584-0.431-3.202-0.651-4.8-0.651c-2.867,0-5.691,0.716-8.162,2.077c-0.058,0.032-0.117,0.065-0.175,0.096l-0.063,0.036
		c-1.409,0.798-2.678,1.784-3.771,2.932c-4.142,4.299-6.224,9.936-5.855,15.868c0.329,5.403,2.643,10.622,6.342,14.315
		c0.653,0.651,1.361,1.273,2.103,1.838c3.515,2.688,7.856,4.275,12.217,4.466c0.295,0.014,0.597,0.022,0.892,0.022
		c5.6,0,10.765-2.228,14.943-6.436c3.035-3.061,4.991-6.561,5.818-10.402c0.44-2.048,0.564-4.247,0.372-6.521
		c-0.471-5.46-2.623-10.331-4.045-13.554l-0.053-0.115c-0.258-0.586-0.48-1.087-0.662-1.526c-0.001-0.014-0.009-0.024-0.014-0.038
		c-0.469-1.153-0.672-2.12-0.7-2.927c-0.009-0.11-0.014-0.218-0.015-0.322c0-0.025-0.002-0.05-0.002-0.075
		c0-0.023,0-0.049-0.002-0.073c0-0.028,0-0.058,0-0.084c-0.003-0.033-0.003-0.065-0.003-0.101c0-0.012,0-0.025,0-0.039
		c-0.001-0.029-0.001-0.055-0.003-0.083c0-0.024-0.003-0.053-0.003-0.075c0-0.027-0.001-0.057-0.001-0.082
		c0-0.022-0.002-0.048-0.002-0.071c-0.002-0.031-0.002-0.058-0.002-0.085c-0.002-0.024-0.002-0.046-0.002-0.076
		c-0.002-0.066-0.002-0.133-0.002-0.197c-0.327,1.059-0.307,2.248,0.04,3.774c0.04,0.187,0.108,0.467,0.198,0.818
		c0.138,0.55,0.32,1.268,0.51,2.12c1.166,4.477,2.818,11.909,0.276,18.871c-0.748,2.264-1.867,4.156-3.357,5.67
		c-3.773,3.821-8.484,5.928-13.257,5.928c-4.525,0-8.762-1.867-12.253-5.4c-6.472-6.561-5.476-16.385-0.482-21.445
		c2.208-2.237,5.087-3.468,8.107-3.468c2.772,0,5.381,1.033,7.162,2.834c1.872,1.896,2.768,5.086,2.184,7.753
		c-0.516,2.368-2.13,4.161-4.541,5.05l-0.412,0.152C40.531,26.622,41.951,27.561,43.625,27.793"/>
</g>
<g>
	<path fill="#FFFFFF" d="M98.038,37.926V21.583c0-2.535-0.533-4.377-1.6-5.529s-2.72-1.727-4.961-1.727
		c-3.013,0-5.22,0.761-6.618,2.283c-1.399,1.522-2.098,3.991-2.098,7.407v13.909h-2.295V1.855h2.295V13.33l-0.116,3.222h0.163
		c0.942-1.514,2.132-2.611,3.57-3.292c1.437-0.68,3.222-1.02,5.355-1.02c5.718,0,8.577,3.068,8.577,9.203v16.482H98.038z"/>
	<path fill="#FFFFFF" d="M129.31,25.292c0,4.111-0.997,7.321-2.99,9.632s-4.745,3.466-8.253,3.466c-2.21,0-4.157-0.533-5.841-1.6
		c-1.685-1.066-2.976-2.597-3.872-4.59c-0.896-1.994-1.344-4.297-1.344-6.908c0-4.111,0.997-7.314,2.99-9.609
		s4.729-3.442,8.206-3.442c3.462,0,6.178,1.163,8.148,3.489C128.324,18.056,129.31,21.243,129.31,25.292z M109.42,25.292
		c0,3.462,0.761,6.162,2.283,8.102s3.674,2.909,6.456,2.909s4.934-0.97,6.456-2.909s2.284-4.64,2.284-8.102
		c0-3.478-0.769-6.174-2.307-8.09c-1.538-1.916-3.697-2.875-6.479-2.875c-2.782,0-4.926,0.954-6.433,2.863
		S109.42,21.799,109.42,25.292z"/>
	<path fill="#FFFFFF" d="M153.858,37.926V21.583c0-2.535-0.533-4.377-1.6-5.529s-2.72-1.727-4.961-1.727
		c-3.013,0-5.22,0.761-6.618,2.283c-1.399,1.522-2.098,3.991-2.098,7.407v13.909h-2.295V12.728h1.947l0.44,3.454h0.139
		c1.638-2.627,4.551-3.941,8.74-3.941c5.718,0,8.577,3.068,8.577,9.203v16.482H153.858z"/>
	<path fill="#FFFFFF" d="M174.467,38.39c-3.663,0-6.518-1.128-8.565-3.385c-2.048-2.256-3.071-5.416-3.071-9.481
		c0-4.018,0.989-7.236,2.967-9.655c1.978-2.418,4.644-3.628,7.998-3.628c2.967,0,5.309,1.036,7.024,3.106s2.573,4.884,2.573,8.438
		v1.854h-18.151c0.031,3.462,0.838,6.104,2.422,7.928c1.584,1.824,3.852,2.735,6.804,2.735c1.438,0,2.701-0.1,3.791-0.301
		c1.089-0.201,2.469-0.634,4.138-1.299v2.087c-1.422,0.618-2.735,1.039-3.941,1.264C177.249,38.277,175.919,38.39,174.467,38.39z
		 M173.795,14.281c-2.427,0-4.374,0.8-5.842,2.399c-1.469,1.599-2.326,3.906-2.573,6.919h15.578c0-2.921-0.634-5.204-1.901-6.85
		C177.79,15.104,176.035,14.281,173.795,14.281z"/>
	<path fill="#FFFFFF" d="M186.127,12.728h2.364l5.332,14.141c1.623,4.343,2.65,7.271,3.083,8.786h0.14
		c0.648-1.994,1.707-4.969,3.176-8.926l5.331-14.001h2.365l-11.29,29.278c-0.912,2.38-1.677,3.987-2.295,4.821
		c-0.618,0.835-1.341,1.461-2.167,1.878c-0.827,0.417-1.828,0.626-3.002,0.626c-0.881,0-1.862-0.162-2.944-0.486v-1.994
		c0.896,0.247,1.862,0.371,2.897,0.371c0.788,0,1.483-0.186,2.087-0.557c0.603-0.371,1.147-0.946,1.634-1.727
		c0.487-0.781,1.051-2.017,1.692-3.709c0.641-1.692,1.055-2.794,1.24-3.304L186.127,12.728z"/>
	<path fill="#FFFFFF" d="M222.915,38.39c-3.879,0-6.707-1.453-8.484-4.358h-0.162l0.069,1.947c0.062,1.144,0.093,2.396,0.093,3.756
		v9.597h-2.295V12.728h1.947l0.44,3.593h0.14c1.73-2.72,4.497-4.08,8.299-4.08c3.399,0,5.992,1.117,7.777,3.35
		c1.785,2.233,2.678,5.482,2.678,9.748c0,4.142-0.939,7.352-2.817,9.631C228.723,37.25,226.161,38.39,222.915,38.39z M222.869,36.35
		c2.581,0,4.578-0.958,5.992-2.875c1.414-1.916,2.121-4.598,2.121-8.043c0-7.403-2.674-11.104-8.021-11.104
		c-2.937,0-5.093,0.808-6.468,2.422c-1.376,1.615-2.063,4.246-2.063,7.893v0.742c0,3.94,0.661,6.754,1.982,8.438
		C217.734,35.507,219.887,36.35,222.869,36.35z"/>
	<path fill="#FFFFFF" d="M250.316,12.241c1.066,0,2.21,0.108,3.431,0.325l-0.44,2.202c-1.051-0.263-2.141-0.394-3.269-0.394
		c-2.148,0-3.91,0.912-5.285,2.735c-1.376,1.824-2.063,4.126-2.063,6.908v13.909h-2.295V12.728h1.947l0.232,4.543h0.162
		c1.035-1.854,2.14-3.156,3.314-3.906S248.647,12.241,250.316,12.241z"/>
	<path fill="#FFFFFF" d="M258.546,5.727c0-1.483,0.486-2.225,1.46-2.225c0.479,0,0.854,0.193,1.125,0.58
		c0.27,0.386,0.405,0.935,0.405,1.646c0,0.696-0.136,1.244-0.405,1.646c-0.271,0.402-0.646,0.603-1.125,0.603
		C259.032,7.975,258.546,7.226,258.546,5.727z M261.165,37.926h-2.295V12.728h2.295V37.926z"/>
	<path fill="#FFFFFF" d="M287.175,37.926V21.583c0-2.535-0.533-4.377-1.6-5.529s-2.721-1.727-4.961-1.727
		c-3.014,0-5.22,0.761-6.618,2.283c-1.399,1.522-2.099,3.991-2.099,7.407v13.909h-2.295V12.728h1.947l0.44,3.454h0.14
		c1.638-2.627,4.551-3.941,8.739-3.941c5.718,0,8.577,3.068,8.577,9.203v16.482H287.175z"/>
	<path fill="#FFFFFF" d="M304.26,36.35c1.452,0,2.72-0.124,3.802-0.371v1.854c-1.112,0.371-2.396,0.557-3.848,0.557
		c-2.226,0-3.868-0.595-4.927-1.785c-1.059-1.189-1.588-3.06-1.588-5.61V14.721h-3.732v-1.345l3.732-1.043l1.159-5.703h1.183v6.097
		h7.395v1.994h-7.395V30.67c0,1.932,0.34,3.361,1.02,4.289C301.74,35.886,302.807,36.35,304.26,36.35z"/>
</g>
</svg>
