<?xml version="1.0" encoding="utf-8"?>
<!-- Generator: Adobe Illustrator 16.0.0, SVG Export Plug-In . SVG Version: 6.00 Build 0)  -->
<!DOCTYPE svg PUBLIC "-//W3C//DTD SVG 1.1//EN" "http://www.w3.org/Graphics/SVG/1.1/DTD/svg11.dtd">
<svg version="1.1" id="Layer_2" xmlns="http://www.w3.org/2000/svg" xmlns:xlink="http://www.w3.org/1999/xlink" x="0px" y="0px"
	 width="364px" height="52px" viewBox="0 0 364 52" enable-background="new 0 0 364 52" xml:space="preserve">
<g>
	<path fill="#FFFFFF" d="M92.587,37.859V21.425c0-2.071-0.471-3.616-1.414-4.636c-0.943-1.02-2.419-1.53-4.428-1.53
		c-2.674,0-4.625,0.727-5.853,2.179s-1.843,3.833-1.843,7.14v13.281h-3.848V1.791h3.848v10.918c0,1.313-0.062,2.403-0.185,3.269
		h0.231c0.757-1.221,1.835-2.183,3.234-2.886c1.398-0.703,2.994-1.055,4.787-1.055c3.106,0,5.436,0.738,6.989,2.214
		c1.554,1.476,2.33,3.821,2.33,7.035v16.573H92.587z"/>
	<path fill="#FFFFFF" d="M126.269,25.134c0,4.144-1.042,7.377-3.129,9.702c-2.086,2.326-4.968,3.488-8.646,3.488
		c-2.271,0-4.288-0.534-6.05-1.6c-1.762-1.066-3.122-2.598-4.08-4.591c-0.958-1.993-1.437-4.327-1.437-7.002
		c0-4.142,1.035-7.367,3.106-9.678c2.071-2.31,4.945-3.465,8.623-3.465c3.554,0,6.378,1.182,8.473,3.546
		C125.221,17.901,126.269,21.1,126.269,25.134z M106.912,25.134c0,3.246,0.649,5.72,1.947,7.418
		c1.298,1.701,3.207,2.552,5.726,2.552c2.518,0,4.431-0.848,5.737-2.539c1.306-1.69,1.959-4.168,1.959-7.431
		c0-3.229-0.653-5.683-1.959-7.36c-1.306-1.676-3.233-2.515-5.783-2.515c-2.519,0-4.42,0.827-5.703,2.48
		C107.553,19.393,106.912,21.858,106.912,25.134z"/>
	<path fill="#FFFFFF" d="M150.399,37.859V21.425c0-2.071-0.472-3.616-1.415-4.636s-2.418-1.53-4.427-1.53
		c-2.658,0-4.605,0.719-5.842,2.156c-1.237,1.437-1.854,3.81-1.854,7.117v13.327h-3.847V12.454h3.129l0.626,3.477h0.185
		c0.788-1.251,1.893-2.221,3.315-2.909c1.421-0.687,3.005-1.031,4.751-1.031c3.06,0,5.363,0.737,6.908,2.213
		c1.545,1.476,2.318,3.836,2.318,7.082v16.573H150.399z"/>
	<path fill="#FFFFFF" d="M172.884,38.324c-3.756,0-6.719-1.143-8.89-3.43c-2.172-2.287-3.257-5.463-3.257-9.529
		c0-4.095,1.008-7.348,3.025-9.759c2.016-2.411,4.724-3.616,8.125-3.616c3.183,0,5.702,1.047,7.556,3.141
		c1.852,2.094,2.777,4.856,2.777,8.287v2.434h-17.497c0.077,2.984,0.831,5.248,2.26,6.792c1.429,1.547,3.442,2.317,6.039,2.317
		c2.735,0,5.439-0.571,8.111-1.716v3.431c-1.358,0.589-2.645,1.009-3.858,1.265C176.064,38.197,174.599,38.324,172.884,38.324z
		 M171.841,15.212c-2.04,0-3.667,0.665-4.879,1.994c-1.213,1.329-1.928,3.168-2.144,5.517h13.283c0-2.426-0.542-4.285-1.624-5.575
		C175.396,15.858,173.849,15.212,171.841,15.212z"/>
	<path fill="#FFFFFF" d="M184.749,12.454h4.125l5.562,14.487c1.222,3.309,1.979,5.697,2.272,7.164h0.185
		c0.2-0.787,0.623-2.138,1.265-4.045c0.643-1.908,2.737-7.777,6.295-17.605h4.127l-10.92,28.93
		c-1.082,2.859-2.347,4.889-3.788,6.086c-1.446,1.196-3.223,1.797-5.32,1.797c-1.176,0-2.334-0.133-3.479-0.395V45.79
		c0.852,0.185,1.803,0.276,2.853,0.276c2.644,0,4.528-1.481,5.657-4.449L194.995,38L184.749,12.454z"/>
	<path fill="#FFFFFF" d="M224.525,38.324c-1.651,0-3.164-0.307-4.53-0.915c-1.367-0.611-2.517-1.55-3.44-2.816h-0.279
		c0.187,1.483,0.279,2.89,0.279,4.22v10.453h-3.85V12.454h3.13l0.533,3.477h0.187c0.987-1.39,2.141-2.395,3.452-3.013
		s2.818-0.927,4.521-0.927c3.367,0,5.969,1.151,7.801,3.454c1.831,2.303,2.747,5.533,2.747,9.689c0,4.175-0.933,7.416-2.796,9.726
		C230.418,37.17,227.833,38.324,224.525,38.324z M223.971,15.259c-2.598,0-4.476,0.719-5.633,2.156
		c-1.16,1.437-1.756,3.725-1.785,6.861v0.858c0,3.57,0.596,6.124,1.785,7.662c1.188,1.538,3.1,2.308,5.727,2.308
		c2.191,0,3.914-0.89,5.156-2.666c1.243-1.776,1.865-4.228,1.865-7.35c0-3.168-0.622-5.599-1.865-7.291
		C227.979,16.105,226.229,15.259,223.971,15.259z"/>
	<path fill="#FFFFFF" d="M253.385,11.991c1.129,0,2.141,0.093,3.037,0.278l-0.533,3.57c-1.051-0.232-1.979-0.348-2.781-0.348
		c-2.056,0-3.812,0.834-5.271,2.503c-1.461,1.669-2.189,3.748-2.189,6.236v13.629h-3.851V12.454h3.177l0.439,4.706h0.186
		c0.942-1.653,2.079-2.928,3.408-3.824C250.334,12.438,251.793,11.991,253.385,11.991z"/>
	<path fill="#FFFFFF" d="M260.85,5.569c0-0.881,0.217-1.526,0.648-1.935c0.432-0.409,0.975-0.615,1.624-0.615
		c0.617,0,1.147,0.208,1.599,0.626c0.449,0.418,0.674,1.059,0.674,1.924c0,0.866-0.227,1.511-0.674,1.936
		c-0.447,0.425-0.98,0.637-1.599,0.637c-0.649,0-1.19-0.211-1.624-0.637C261.064,7.079,260.85,6.436,260.85,5.569z M265.021,37.859
		h-3.849V12.454h3.849V37.859z"/>
	<path fill="#FFFFFF" d="M290.566,37.859V21.425c0-2.071-0.471-3.616-1.414-4.636c-0.941-1.02-2.418-1.53-4.428-1.53
		c-2.658,0-4.604,0.719-5.842,2.156c-1.236,1.437-1.854,3.81-1.854,7.117v13.327h-3.851V12.454h3.132l0.625,3.477h0.187
		c0.788-1.251,1.892-2.221,3.313-2.909c1.422-0.687,3.008-1.031,4.752-1.031c3.062,0,5.362,0.737,6.906,2.213
		c1.547,1.476,2.319,3.836,2.319,7.082v16.573H290.566z"/>
	<path fill="#FFFFFF" d="M310.525,35.148c0.681,0,1.336-0.051,1.972-0.15c0.634-0.1,1.135-0.205,1.506-0.312v2.943
		c-0.417,0.201-1.03,0.366-1.844,0.499c-0.812,0.131-1.541,0.196-2.188,0.196c-4.916,0-7.371-2.59-7.371-7.766V15.444h-3.641V13.59
		l3.641-1.599l1.621-5.425h2.227v5.888h7.373v2.99h-7.373v14.953c0,1.529,0.363,2.703,1.091,3.522
		C308.261,34.74,309.258,35.148,310.525,35.148z"/>
</g>
<g>
	<path fill="#FFFFFF" d="M331.086,11.495c0,1.25-0.451,2.231-1.354,2.942c-0.904,0.711-2.15,1.067-3.74,1.067
		c-1.588,0-2.889-0.247-3.901-0.74v-2.173c0.642,0.302,1.321,0.539,2.042,0.712c0.723,0.173,1.393,0.26,2.016,0.26
		c0.908,0,1.582-0.173,2.015-0.519c0.433-0.346,0.647-0.811,0.647-1.395c0-0.525-0.199-0.97-0.597-1.335
		c-0.397-0.366-1.218-0.798-2.462-1.298c-1.279-0.519-2.184-1.112-2.71-1.778c-0.524-0.667-0.788-1.468-0.788-2.403
		c0-1.173,0.416-2.096,1.25-2.77c0.833-0.672,1.951-1.009,3.354-1.009c1.349,0,2.688,0.294,4.021,0.884l-0.729,1.875
		c-1.25-0.525-2.363-0.788-3.347-0.788c-0.743,0-1.309,0.162-1.69,0.485c-0.385,0.323-0.576,0.751-0.576,1.283
		c0,0.366,0.076,0.678,0.229,0.938c0.154,0.259,0.406,0.505,0.762,0.735c0.352,0.23,0.984,0.535,1.9,0.913
		c1.033,0.43,1.789,0.83,2.271,1.202c0.479,0.371,0.832,0.791,1.058,1.259C330.975,10.31,331.086,10.861,331.086,11.495z"/>
	<path fill="#FFFFFF" d="M344.159,15.312h-2.644l-3.52-5.75l-3.547,5.75h-2.461l4.662-7.287l-4.365-6.769h2.558l3.25,5.316
		l3.249-5.316h2.48l-4.396,6.806L344.159,15.312z"/>
	<path fill="#FFFFFF" d="M354.592,15.312h-9.525V13.6l3.623-3.644c1.069-1.096,1.778-1.873,2.129-2.331
		c0.352-0.458,0.604-0.889,0.766-1.293c0.16-0.403,0.24-0.836,0.24-1.298c0-0.634-0.191-1.134-0.571-1.5
		c-0.382-0.365-0.908-0.548-1.582-0.548c-0.538,0-1.06,0.101-1.562,0.298c-0.502,0.199-1.084,0.557-1.744,1.077l-1.223-1.49
		c0.782-0.661,1.543-1.128,2.277-1.403c0.734-0.276,1.521-0.414,2.354-0.414c1.31,0,2.354,0.341,3.146,1.023
		c0.789,0.683,1.185,1.601,1.185,2.755c0,0.634-0.113,1.236-0.343,1.807c-0.229,0.57-0.575,1.158-1.048,1.764
		s-1.255,1.424-2.352,2.457l-2.441,2.364v0.096h6.673L354.592,15.312L354.592,15.312z"/>
</g>
<g>
	<path fill="#FAAB18" d="M57.441,21.683C58.093,28.925,56.894,15.601,57.441,21.683"/>
	<path fill="#FAAB18" d="M52.97,6.966L52.872,6.76c-0.209-0.467-0.404-0.902-0.566-1.277l-0.662-1.534l1.653-0.09
		c1.088-0.064,1.89-0.567,2.243-1.414c0.051-0.117,0.089-0.238,0.119-0.363c-0.158-0.778-0.643-1.493-1.369-1.883
		C54.042,0.07,53.739,0,53.419,0c-0.665,0-1.373,0.296-1.888,0.787c-0.43,0.413-0.96,1.164-1.049,2.403
		c0.086,0.712,0.299,1.543,0.699,2.506c0.128,0.314,0.287,0.668,0.462,1.057c0.097,0.218,0.199,0.447,0.31,0.692
		c1.538,3.376,3.857,8.481,4.394,14.246c0.648,6.914-1.516,12.943-6.43,17.919c-4.379,4.438-9.808,6.779-15.696,6.779
		c-0.334,0-0.674-0.004-1.011-0.021c-5.618-0.26-11.115-2.715-15.086-6.737c-3.888-3.94-6.289-9.483-6.587-15.211
		c-0.323-6.3,1.958-12.264,6.425-16.787c3.497-3.542,8.156-5.489,13.135-5.489c1.768,0,3.556,0.25,5.306,0.735
		c6.281,1.745,10.895,6.245,12.349,12.042c1.004,3.991,0.039,8.2-2.448,10.721c-1.897,1.924-4.163,2.982-6.376,2.982
		c-0.312,0-0.626-0.023-0.932-0.066c-2.007-0.278-3.682-1.442-4.873-3.379h-0.004l-0.464-0.906
		c-0.187-0.364-0.375-0.747-0.589-1.211c-0.069-0.142-0.135-0.283-0.208-0.428c-0.023-0.049-0.049-0.096-0.071-0.145
		c-0.528-0.949-1.44-1.671-2.448-1.813c-1.679-0.236-2.778,1.583-2.087,3.056c0.778,1.648,2.386,1.421,3.9,1.218l0.493-0.067
		l0.266,0.468c1.333,2.417,3.493,3.999,5.92,4.338c0.359,0.052,0.724,0.078,1.087,0.078c2.516,0,5.065-1.181,7.175-3.315
		c1.166-1.189,2.063-2.755,2.599-4.52c0.855-2.996,0.57-5.886-0.208-8.535c-0.78-2.647-2.247-4.734-4.081-6.592
		c-2.314-2.344-5.325-4.076-8.707-5.018c-1.858-0.518-3.748-0.78-5.62-0.78c-5.266,0-10.209,2.069-13.917,5.827
		C6.962,17.16,9.299,32.32,17.32,40.443c4.098,4.153,9.834,6.715,15.735,7.021c0.395,0.023,0.796,0.035,1.188,0.035
		c6.112,0,11.954-2.52,16.463-7.08c5.122-5.189,7.388-11.486,6.731-18.727C56.894,15.601,54.438,10.197,52.97,6.966"/>
	<path fill="#FAAB18" d="M38.523,27.793c0.276,0.042,0.56,0.062,0.843,0.062c2.002,0,4.052-0.969,5.778-2.726
		c2.261-2.309,3.114-6.156,2.173-9.806c-0.286-1.115-0.707-2.191-1.249-3.204c-2.031-3.802-5.657-6.58-10.209-7.816
		c-1.584-0.431-3.202-0.651-4.8-0.651c-2.867,0-5.691,0.716-8.162,2.077c-0.058,0.032-0.117,0.065-0.175,0.096l-0.063,0.036
		c-1.409,0.798-2.678,1.784-3.771,2.932c-4.142,4.299-6.224,9.936-5.855,15.868c0.329,5.404,2.643,10.622,6.342,14.316
		c0.653,0.651,1.361,1.273,2.103,1.838c3.515,2.688,7.856,4.275,12.217,4.465c0.295,0.014,0.597,0.023,0.892,0.023
		c5.6,0,10.765-2.228,14.943-6.436c3.035-3.061,4.991-6.561,5.818-10.402c0.44-2.048,0.564-4.247,0.372-6.521
		c-0.471-5.46-2.623-10.331-4.045-13.554l-0.053-0.115c-0.258-0.586-0.48-1.087-0.662-1.526c-0.001-0.014-0.009-0.024-0.014-0.038
		c-0.469-1.153-0.672-2.12-0.7-2.927c-0.009-0.11-0.014-0.218-0.015-0.322c0-0.025-0.002-0.05-0.002-0.075
		c0-0.023,0-0.049-0.002-0.073c0-0.028,0-0.058,0-0.084c-0.003-0.033-0.003-0.065-0.003-0.101c0-0.012,0-0.025,0-0.039
		c-0.001-0.029-0.001-0.055-0.003-0.083c0-0.024-0.003-0.053-0.003-0.075c0-0.027-0.001-0.057-0.001-0.082
		c0-0.022-0.002-0.048-0.002-0.071c-0.002-0.031-0.002-0.058-0.002-0.085c-0.002-0.024-0.002-0.046-0.002-0.076
		c-0.002-0.066-0.002-0.133-0.002-0.197c-0.327,1.059-0.307,2.248,0.04,3.774c0.04,0.187,0.108,0.467,0.198,0.818
		c0.138,0.55,0.32,1.268,0.51,2.12c1.166,4.477,2.818,11.909,0.276,18.871c-0.748,2.264-1.867,4.156-3.357,5.67
		c-3.773,3.821-8.484,5.928-13.257,5.928c-4.525,0-8.762-1.867-12.253-5.401c-6.472-6.56-5.476-16.385-0.482-21.445
		c2.208-2.237,5.087-3.468,8.107-3.468c2.772,0,5.381,1.033,7.162,2.834c1.872,1.896,2.768,5.086,2.184,7.753
		c-0.516,2.368-2.13,4.161-4.541,5.05l-0.412,0.152C35.429,26.622,36.849,27.56,38.523,27.793"/>
</g>
</svg>
