<?xml version="1.0" encoding="utf-8"?>
<!-- Generator: Adobe Illustrator 16.0.0, SVG Export Plug-In . SVG Version: 6.00 Build 0)  -->
<!DOCTYPE svg PUBLIC "-//W3C//DTD SVG 1.1//EN" "http://www.w3.org/Graphics/SVG/1.1/DTD/svg11.dtd">
<svg version="1.1" id="Layer_2" xmlns="http://www.w3.org/2000/svg" xmlns:xlink="http://www.w3.org/1999/xlink" x="0px" y="0px"
	 width="67.5px" height="52px" viewBox="0 0 67.5 52" enable-background="new 0 0 67.5 52" xml:space="preserve">
<g>
	<path fill="#FAAB18" d="M57.441,22.817C58.093,30.06,56.894,16.735,57.441,22.817"/>
	<path fill="#FAAB18" d="M52.97,8.1l-0.098-0.206c-0.209-0.467-0.404-0.902-0.566-1.277l-0.662-1.534l1.653-0.09
		c1.088-0.064,1.89-0.567,2.243-1.414c0.051-0.117,0.089-0.238,0.119-0.363c-0.158-0.778-0.643-1.493-1.369-1.883
		c-0.248-0.129-0.551-0.199-0.871-0.199c-0.665,0-1.373,0.296-1.888,0.787c-0.43,0.413-0.96,1.164-1.049,2.403
		c0.086,0.712,0.299,1.543,0.699,2.506c0.128,0.314,0.287,0.668,0.462,1.057c0.097,0.218,0.199,0.447,0.31,0.692
		c1.538,3.376,3.857,8.481,4.394,14.246c0.648,6.916-1.516,12.944-6.43,17.919c-4.379,4.438-9.808,6.779-15.696,6.779
		c-0.334,0-0.674-0.004-1.011-0.021c-5.618-0.261-11.115-2.716-15.086-6.737c-3.888-3.939-6.289-9.482-6.587-15.212
		c-0.323-6.3,1.958-12.264,6.425-16.787c3.497-3.542,8.156-5.489,13.135-5.489c1.768,0,3.556,0.25,5.306,0.735
		c6.281,1.745,10.895,6.245,12.349,12.042c1.004,3.991,0.039,8.2-2.448,10.722c-1.897,1.925-4.163,2.982-6.376,2.982
		c-0.312,0-0.626-0.022-0.932-0.065c-2.007-0.278-3.682-1.442-4.873-3.38h-0.004l-0.464-0.906c-0.187-0.364-0.375-0.747-0.589-1.211
		c-0.069-0.142-0.135-0.283-0.208-0.428c-0.023-0.049-0.049-0.096-0.071-0.145c-0.528-0.949-1.44-1.671-2.448-1.813
		c-1.679-0.236-2.778,1.583-2.087,3.056c0.778,1.648,2.386,1.421,3.9,1.218l0.493-0.067l0.266,0.468c1.333,2.417,3.493,4,5.92,4.339
		c0.359,0.052,0.724,0.078,1.087,0.078c2.516,0,5.065-1.182,7.175-3.315c1.166-1.19,2.063-2.756,2.599-4.521
		c0.855-2.996,0.57-5.886-0.208-8.535c-0.78-2.647-2.247-4.734-4.081-6.592c-2.314-2.344-5.325-4.076-8.707-5.018
		c-1.858-0.518-3.748-0.78-5.62-0.78c-5.266,0-10.209,2.069-13.917,5.827c-10.197,10.326-7.86,25.487,0.161,33.61
		c4.098,4.152,9.834,6.715,15.735,7.021c0.395,0.022,0.796,0.035,1.188,0.035c6.112,0,11.954-2.521,16.463-7.08
		c5.122-5.188,7.388-11.485,6.731-18.728C56.894,16.735,54.438,11.331,52.97,8.1"/>
	<path fill="#FAAB18" d="M38.523,28.928c0.276,0.042,0.56,0.062,0.843,0.062c2.002,0,4.052-0.97,5.778-2.728
		c2.261-2.309,3.114-6.156,2.173-9.806c-0.286-1.115-0.707-2.191-1.249-3.204c-2.031-3.802-5.657-6.58-10.209-7.816
		c-1.584-0.431-3.202-0.651-4.8-0.651c-2.867,0-5.691,0.716-8.162,2.077c-0.058,0.032-0.117,0.065-0.175,0.096l-0.063,0.036
		c-1.409,0.798-2.678,1.784-3.771,2.932c-4.142,4.299-6.224,9.936-5.855,15.868c0.329,5.404,2.643,10.623,6.342,14.316
		c0.653,0.651,1.361,1.273,2.103,1.838c3.515,2.688,7.856,4.275,12.217,4.466c0.295,0.014,0.597,0.022,0.892,0.022
		c5.6,0,10.765-2.228,14.943-6.436c3.035-3.061,4.991-6.561,5.818-10.402c0.44-2.048,0.564-4.248,0.372-6.522
		c-0.471-5.46-2.623-10.331-4.045-13.554l-0.053-0.115c-0.258-0.586-0.48-1.087-0.662-1.526c-0.001-0.014-0.009-0.024-0.014-0.038
		c-0.469-1.153-0.672-2.12-0.7-2.927c-0.009-0.11-0.014-0.218-0.015-0.322c0-0.025-0.002-0.05-0.002-0.075
		c0-0.023,0-0.049-0.002-0.073c0-0.028,0-0.058,0-0.084c-0.003-0.033-0.003-0.065-0.003-0.101c0-0.012,0-0.025,0-0.039
		c-0.001-0.029-0.001-0.055-0.003-0.083c0-0.024-0.003-0.053-0.003-0.075c0-0.027-0.001-0.057-0.001-0.082
		c0-0.022-0.002-0.048-0.002-0.071c-0.002-0.031-0.002-0.058-0.002-0.085c-0.002-0.024-0.002-0.046-0.002-0.076
		c-0.002-0.066-0.002-0.133-0.002-0.197c-0.327,1.059-0.307,2.248,0.04,3.774c0.04,0.187,0.108,0.467,0.198,0.818
		c0.138,0.55,0.32,1.268,0.51,2.12c1.166,4.477,2.818,11.909,0.276,18.872c-0.748,2.264-1.867,4.156-3.357,5.67
		c-3.773,3.821-8.484,5.928-13.257,5.928c-4.525,0-8.762-1.867-12.253-5.4c-6.472-6.561-5.476-16.386-0.482-21.446
		c2.208-2.237,5.087-3.468,8.107-3.468c2.772,0,5.381,1.033,7.162,2.834c1.872,1.896,2.768,5.086,2.184,7.753
		c-0.516,2.368-2.13,4.161-4.541,5.05l-0.412,0.152C35.429,27.757,36.849,28.695,38.523,28.928"/>
</g>
</svg>
