<?xml version="1.0" encoding="utf-8"?>
<!-- Generator: Adobe Illustrator 16.0.0, SVG Export Plug-In . SVG Version: 6.00 Build 0)  -->
<!DOCTYPE svg PUBLIC "-//W3C//DTD SVG 1.1//EN" "http://www.w3.org/Graphics/SVG/1.1/DTD/svg11.dtd">
<svg version="1.1" id="Layer_2" xmlns="http://www.w3.org/2000/svg" xmlns:xlink="http://www.w3.org/1999/xlink" x="0px" y="0px"
	 width="364px" height="52px" viewBox="0 0 364 52" enable-background="new 0 0 364 52" xml:space="preserve">
<g>
	<g>
		<path fill="#FAAB18" d="M54.339,22.683C54.991,29.925,53.792,16.601,54.339,22.683"/>
		<path fill="#FAAB18" d="M49.868,7.966L49.77,7.76c-0.209-0.467-0.404-0.902-0.566-1.277l-0.662-1.534l1.653-0.09
			c1.088-0.064,1.89-0.567,2.243-1.414c0.051-0.117,0.089-0.238,0.119-0.363c-0.158-0.778-0.643-1.493-1.369-1.883
			C50.94,1.07,50.637,1,50.317,1c-0.665,0-1.373,0.296-1.888,0.787c-0.43,0.413-0.96,1.164-1.049,2.403
			c0.086,0.712,0.299,1.543,0.699,2.506c0.128,0.314,0.287,0.668,0.462,1.057c0.097,0.218,0.199,0.447,0.31,0.692
			c1.538,3.376,3.857,8.481,4.394,14.246c0.648,6.915-1.516,12.943-6.43,17.918c-4.379,4.438-9.808,6.779-15.696,6.779
			c-0.334,0-0.674-0.005-1.011-0.021c-5.618-0.262-11.115-2.717-15.086-6.737c-3.888-3.938-6.289-9.481-6.587-15.211
			c-0.323-6.3,1.958-12.264,6.425-16.787c3.497-3.542,8.156-5.489,13.135-5.489c1.768,0,3.556,0.25,5.306,0.735
			c6.281,1.746,10.895,6.246,12.349,12.043c1.004,3.991,0.039,8.2-2.448,10.722c-1.897,1.924-4.163,2.981-6.376,2.981
			c-0.312,0-0.626-0.022-0.932-0.065c-2.007-0.277-3.682-1.441-4.873-3.378h-0.004l-0.464-0.906
			c-0.187-0.364-0.375-0.747-0.589-1.211c-0.069-0.142-0.135-0.283-0.208-0.428c-0.023-0.049-0.049-0.096-0.071-0.146
			c-0.528-0.949-1.44-1.671-2.448-1.812c-1.679-0.236-2.778,1.583-2.087,3.056c0.778,1.648,2.386,1.421,3.9,1.218l0.493-0.067
			l0.266,0.468c1.333,2.417,3.493,4,5.92,4.337c0.359,0.053,0.724,0.078,1.087,0.078c2.516,0,5.065-1.182,7.175-3.314
			c1.166-1.189,2.063-2.755,2.599-4.52c0.855-2.996,0.57-5.886-0.208-8.535c-0.78-2.647-2.247-4.734-4.081-6.592
			c-2.314-2.344-5.325-4.076-8.707-5.018c-1.858-0.518-3.748-0.78-5.62-0.78c-5.266,0-10.209,2.069-13.917,5.827
			C3.86,18.161,6.197,33.32,14.218,41.443c4.098,4.152,9.834,6.716,15.735,7.021c0.395,0.021,0.796,0.035,1.188,0.035
			c6.112,0,11.954-2.521,16.463-7.08c5.122-5.188,7.388-11.484,6.731-18.727C53.792,16.601,51.336,11.197,49.868,7.966"/>
		<path fill="#FAAB18" d="M35.421,28.793c0.276,0.042,0.56,0.062,0.843,0.062c2.002,0,4.052-0.971,5.778-2.728
			c2.261-2.309,3.114-6.156,2.173-9.806c-0.286-1.115-0.707-2.191-1.249-3.204c-2.031-3.802-5.657-6.58-10.209-7.816
			c-1.584-0.431-3.202-0.651-4.8-0.651c-2.867,0-5.691,0.716-8.162,2.077c-0.058,0.032-0.117,0.065-0.175,0.096L19.557,6.86
			c-1.409,0.798-2.678,1.784-3.771,2.932c-4.142,4.299-6.224,9.936-5.855,15.868c0.329,5.402,2.643,10.621,6.342,14.314
			c0.653,0.651,1.361,1.273,2.103,1.838c3.515,2.688,7.856,4.275,12.217,4.467c0.295,0.014,0.597,0.021,0.892,0.021
			c5.6,0,10.765-2.229,14.943-6.436c3.035-3.061,4.991-6.561,5.818-10.402c0.44-2.048,0.564-4.247,0.372-6.521
			c-0.471-5.46-2.623-10.331-4.045-13.554L48.52,9.273c-0.258-0.586-0.48-1.087-0.662-1.526c-0.001-0.014-0.009-0.024-0.014-0.038
			c-0.469-1.153-0.672-2.12-0.7-2.927c-0.009-0.11-0.014-0.218-0.015-0.322c0-0.025-0.002-0.05-0.002-0.075
			c0-0.023,0-0.049-0.002-0.073c0-0.028,0-0.058,0-0.084c-0.003-0.033-0.003-0.065-0.003-0.101c0-0.012,0-0.025,0-0.039
			c-0.001-0.029-0.001-0.055-0.003-0.083c0-0.024-0.003-0.053-0.003-0.075c0-0.027-0.001-0.057-0.001-0.082
			c0-0.022-0.002-0.048-0.002-0.071c-0.002-0.031-0.002-0.058-0.002-0.085c-0.002-0.024-0.002-0.046-0.002-0.076
			c-0.002-0.066-0.002-0.133-0.002-0.197c-0.327,1.059-0.307,2.248,0.04,3.774c0.04,0.187,0.108,0.467,0.198,0.818
			c0.138,0.55,0.32,1.268,0.51,2.12c1.166,4.477,2.818,11.909,0.276,18.871c-0.748,2.264-1.867,4.156-3.357,5.67
			C41.001,38.493,36.29,40.6,31.517,40.6c-4.525,0-8.762-1.867-12.253-5.399c-6.472-6.562-5.476-16.385-0.482-21.445
			c2.208-2.237,5.087-3.468,8.107-3.468c2.772,0,5.381,1.033,7.162,2.834c1.872,1.896,2.768,5.086,2.184,7.753
			c-0.516,2.368-2.13,4.161-4.541,5.05l-0.412,0.152C32.327,27.622,33.747,28.561,35.421,28.793"/>
	</g>
	<g>
		<path fill="#FFFFFF" d="M89.834,38.926V22.583c0-2.535-0.533-4.377-1.6-5.529c-1.067-1.152-2.72-1.727-4.961-1.727
			c-3.013,0-5.22,0.761-6.618,2.283c-1.399,1.522-2.098,3.991-2.098,7.407v13.909h-2.295V2.855h2.295V14.33l-0.116,3.222h0.163
			c0.942-1.514,2.132-2.611,3.57-3.292c1.437-0.68,3.222-1.021,5.355-1.021c5.718,0,8.577,3.068,8.577,9.203v16.482L89.834,38.926
			L89.834,38.926z"/>
		<path fill="#FFFFFF" d="M121.106,26.292c0,4.11-0.997,7.321-2.99,9.632c-1.993,2.311-4.745,3.467-8.253,3.467
			c-2.21,0-4.157-0.533-5.841-1.601c-1.685-1.065-2.976-2.597-3.872-4.59c-0.896-1.994-1.344-4.298-1.344-6.908
			c0-4.111,0.997-7.314,2.99-9.609s4.729-3.442,8.206-3.442c3.462,0,6.178,1.163,8.148,3.489S121.106,22.243,121.106,26.292z
			 M101.216,26.292c0,3.462,0.761,6.162,2.283,8.103c1.522,1.939,3.674,2.908,6.456,2.908c2.782,0,4.934-0.97,6.456-2.908
			c1.522-1.939,2.284-4.641,2.284-8.103c0-3.478-0.769-6.174-2.307-8.09c-1.538-1.916-3.697-2.875-6.479-2.875
			c-2.782,0-4.926,0.954-6.433,2.863C101.969,20.099,101.216,22.799,101.216,26.292z"/>
		<path fill="#FFFFFF" d="M145.654,38.926V22.583c0-2.535-0.533-4.377-1.6-5.529c-1.067-1.152-2.72-1.727-4.961-1.727
			c-3.013,0-5.22,0.761-6.618,2.283c-1.399,1.522-2.098,3.991-2.098,7.407v13.909h-2.295V13.728h1.947l0.44,3.454h0.139
			c1.638-2.627,4.551-3.941,8.74-3.941c5.718,0,8.577,3.068,8.577,9.203v16.482H145.654z"/>
		<path fill="#FFFFFF" d="M166.263,39.391c-3.663,0-6.518-1.129-8.565-3.386c-2.048-2.256-3.071-5.416-3.071-9.481
			c0-4.018,0.989-7.235,2.967-9.654c1.978-2.418,4.644-3.628,7.998-3.628c2.967,0,5.309,1.036,7.024,3.106
			c1.715,2.07,2.573,4.884,2.573,8.438v1.854h-18.15c0.031,3.463,0.838,6.104,2.422,7.928c1.584,1.824,3.852,2.736,6.804,2.736
			c1.438,0,2.701-0.101,3.791-0.302c1.089-0.201,2.469-0.634,4.138-1.299v2.087c-1.422,0.617-2.735,1.039-3.941,1.264
			C169.045,39.277,167.715,39.391,166.263,39.391z M165.591,15.281c-2.427,0-4.374,0.8-5.842,2.399
			c-1.469,1.599-2.326,3.906-2.573,6.919h15.578c0-2.921-0.634-5.204-1.901-6.85C169.586,16.104,167.831,15.281,165.591,15.281z"/>
		<path fill="#FFFFFF" d="M177.923,13.728h2.364l5.327,14.141c1.623,4.343,2.65,7.271,3.084,8.785h0.14
			c0.647-1.993,1.707-4.969,3.177-8.926l5.33-14h2.365l-11.29,29.278c-0.912,2.381-1.677,3.987-2.295,4.821
			c-0.618,0.835-1.341,1.461-2.167,1.878c-0.827,0.417-1.827,0.626-3,0.626c-0.879,0-1.861-0.162-2.942-0.485v-1.994
			c0.896,0.246,1.861,0.371,2.895,0.371c0.787,0,1.48-0.187,2.084-0.558c0.603-0.371,1.147-0.946,1.634-1.728
			c0.487-0.781,1.051-2.017,1.691-3.709c0.642-1.691,1.056-2.793,1.24-3.304L177.923,13.728z"/>
		<path fill="#FFFFFF" d="M214.707,39.391c-3.879,0-6.707-1.453-8.483-4.359h-0.162l0.068,1.947
			c0.062,1.145,0.094,2.396,0.094,3.756v9.598h-2.295V13.728h1.946l0.44,3.593h0.14c1.729-2.72,4.497-4.08,8.299-4.08
			c3.399,0,5.992,1.117,7.776,3.35c1.785,2.233,2.679,5.482,2.679,9.748c0,4.142-0.938,7.353-2.817,9.632
			C220.515,38.25,217.953,39.391,214.707,39.391z M214.661,37.35c2.581,0,4.578-0.957,5.992-2.875
			c1.414-1.916,2.121-4.598,2.121-8.042c0-7.403-2.674-11.104-8.021-11.104c-2.938,0-5.093,0.808-6.468,2.422
			c-1.376,1.615-2.063,4.246-2.063,7.893v0.742c0,3.94,0.661,6.753,1.982,8.437C209.526,36.507,211.679,37.35,214.661,37.35z"/>
		<path fill="#FFFFFF" d="M242.108,13.241c1.065,0,2.209,0.108,3.431,0.325l-0.44,2.202c-1.051-0.263-2.141-0.394-3.269-0.394
			c-2.147,0-3.91,0.912-5.285,2.735c-1.376,1.824-2.063,4.126-2.063,6.908v13.909h-2.295V13.728h1.947l0.232,4.543h0.162
			c1.035-1.854,2.14-3.156,3.313-3.906C239.017,13.615,240.438,13.241,242.108,13.241z"/>
		<path fill="#FFFFFF" d="M250.338,6.727c0-1.483,0.485-2.225,1.46-2.225c0.479,0,0.854,0.193,1.125,0.58
			c0.27,0.386,0.405,0.935,0.405,1.646c0,0.696-0.136,1.244-0.405,1.646c-0.271,0.402-0.646,0.603-1.125,0.603
			C250.824,8.975,250.338,8.226,250.338,6.727z M252.957,38.926h-2.295V13.728h2.295V38.926z"/>
		<path fill="#FFFFFF" d="M278.967,38.926V22.583c0-2.535-0.532-4.377-1.6-5.529c-1.067-1.152-2.722-1.727-4.962-1.727
			c-3.014,0-5.219,0.761-6.617,2.283s-2.1,3.991-2.1,7.407v13.909h-2.295V13.728h1.947l0.439,3.454h0.141
			c1.639-2.627,4.551-3.941,8.739-3.941c5.718,0,8.577,3.068,8.577,9.203v16.482H278.967z"/>
		<path fill="#FFFFFF" d="M296.052,37.35c1.452,0,2.721-0.123,3.803-0.371v1.854c-1.112,0.371-2.396,0.558-3.849,0.558
			c-2.226,0-3.868-0.596-4.927-1.785s-1.588-3.061-1.588-5.61V15.721h-3.732v-1.345l3.732-1.043l1.158-5.703h1.184v6.097h7.395
			v1.994h-7.395V31.67c0,1.932,0.34,3.361,1.02,4.289S294.599,37.35,296.052,37.35z"/>
	</g>
	<g>
		<path fill="#FFFFFF" d="M355.792,38.904h-22.838V34.8l8.689-8.732c2.564-2.627,4.267-4.489,5.104-5.589
			c0.838-1.098,1.448-2.132,1.832-3.099c0.384-0.969,0.576-2.006,0.576-3.112c0-1.521-0.457-2.718-1.371-3.595
			c-0.914-0.875-2.178-1.313-3.791-1.313c-1.291,0-2.539,0.239-3.744,0.715c-1.206,0.477-2.601,1.337-4.183,2.581l-2.927-3.572
			c1.874-1.582,3.695-2.704,5.461-3.364c1.768-0.66,3.648-0.991,5.646-0.991c3.135,0,5.646,0.818,7.535,2.454
			c1.891,1.638,2.836,3.837,2.836,6.603c0,1.521-0.273,2.966-0.819,4.333s-1.382,2.777-2.513,4.227
			c-1.128,1.453-3.008,3.416-5.635,5.888l-5.852,5.669v0.231h15.992V38.904z"/>
		<path fill="#FFFFFF" d="M320.187,17.659c4.686,0,8.5,3.812,8.5,8.5s-3.814,8.501-8.5,8.501c-4.688,0-8.5-3.814-8.5-8.501
			S315.499,17.659,320.187,17.659 M320.187,12.955c-7.293,0-13.205,5.913-13.205,13.204c0,7.293,5.912,13.206,13.205,13.206
			s13.205-5.912,13.205-13.206C333.392,18.867,327.479,12.955,320.187,12.955L320.187,12.955z"/>
	</g>
</g>
</svg>
